<svg width="120" height="120" viewBox="-15 -15 360 360"
     xmlns="http://www.w3.org/2000/svg">

  <defs>
    <!-- ðŸŒˆ ê·¸ë¼ë°ì´ì…˜ -->
    <linearGradient id="lunaGradient" x1="0" y1="0" x2="1" y2="1">
      <stop offset="0%" stop-color="#CDB6F2"/>
      <stop offset="100%" stop-color="#7C5FA6"/>
    </linearGradient>

    <!-- ðŸ’¡ ì‚´ì§ ë¹›ë‚˜ëŠ” íš¨ê³¼ -->
    <filter id="glow" x="-50%" y="-50%" width="200%" height="200%">
      <feGaussianBlur stdDeviation="4" result="coloredBlur"/>
      <feMerge>
        <feMergeNode in="coloredBlur"/>
        <feMergeNode in="SourceGraphic"/>
      </feMerge>
    </filter>
  </defs>

  <!-- ðŸŒ™ ë‹¬ -->
  <path
    d="M328.307,226.785c-0.743-0.744-1.874-0.944-2.826-0.497
    c-22.006,10.286-46.545,15.723-70.963,15.723
    c-44.739,0-86.799-17.422-118.433-49.056
    C86.413,143.283,73.017,67.17,102.751,3.558
    c0.446-0.953,0.247-2.083-0.497-2.826
    c-0.744-0.744-1.874-0.942-2.826-0.497
    C81.267,8.724,64.814,20.274,50.525,34.563
    C17.943,67.144,0,110.463,0,156.539
    c0,46.076,17.943,89.395,50.524,121.975
    c32.58,32.582,75.899,50.525,121.976,50.525
    c46.076,0,89.395-17.943,121.976-50.525
    c14.29-14.289,25.839-30.743,34.328-48.903
    C329.249,228.658,329.051,227.529,328.307,226.785z"
    fill="url(#lunaGradient)"
    stroke="#5B3B82"
    stroke-width="6"
    filter="url(#glow)"
  />

  <!-- â­ ë³„ -->
  <path
    d="M167.174,159.365c0,0.64,0.244,1.28,0.732,1.768
    c0.976,0.977,2.56,0.977,3.535,0
    c12.417-12.417,24.907-18.713,37.123-18.713
    c12.216,0,24.706,6.296,37.123,18.713
    c0.488,0.488,1.128,0.732,1.768,0.732
    c1.4,0,2.5-1.12,2.5-2.5
    c0-0.78-0.37-1.48-0.93-1.94
    c-24.8-24.9-24.74-49.15,0.18-74.07
    c0.488-0.488,0.732-1.128,0.732-1.768
    c0-0.64-0.244-1.28-0.732-1.768
    c-0.976-0.977-2.56-0.977-3.535,0
    c-12.417,12.416-24.907,18.713-37.123,18.713
    c-12.216,0-24.706-6.296-37.123-18.713
    c-0.976-0.977-2.56-0.977-3.535,0
    c-0.488,0.488-0.732,1.128-0.732,1.768
    c0,0.64,0.244,1.28,0.732,1.768
    c24.979,24.98,24.979,49.266,0,74.247
    C167.419,158.085,167.174,158.725,167.174,159.365z"
    fill="#F4E9FF"
    stroke="#7C5FA6"
    stroke-width="3"
  />

</svg>
